<?xml version="1.0" standalone="no"?>
<!DOCTYPE svg PUBLIC "-//W3C//DTD SVG 20010904//EN"
 "http://www.w3.org/TR/2001/REC-SVG-20010904/DTD/svg10.dtd">
<svg version="1.0" xmlns="http://www.w3.org/2000/svg"
 width="3000.000000pt" height="3000.000000pt" viewBox="0 0 3000.000000 3000.000000"
 preserveAspectRatio="xMidYMid meet">
<metadata>
Created by potrace 1.15, written by Peter Selinger 2001-2017
</metadata>
<g transform="translate(0.000000,3000.000000) scale(0.100000,-0.100000)"
fill="#000000" stroke="none">
<path d="M14215 27210 c-312 -24 -627 -60 -965 -110 -74 -11 -169 -25 -210
-31 -69 -10 -432 -83 -715 -143 -220 -48 -646 -165 -975 -270 -372 -118 -540
-178 -797 -282 -100 -41 -185 -74 -189 -74 -4 0 -84 -34 -178 -76 -94 -42
-207 -92 -251 -111 -233 -103 -771 -381 -1011 -525 -73 -43 -134 -78 -137 -78
-7 0 -195 -117 -382 -237 -437 -280 -840 -577 -1269 -936 -435 -363 -995 -913
-1346 -1322 -47 -54 -103 -119 -126 -144 -22 -25 -66 -77 -97 -116 -31 -38
-69 -86 -85 -105 -88 -109 -228 -290 -301 -390 -47 -63 -108 -146 -137 -185
-78 -105 -367 -541 -467 -705 -161 -265 -248 -412 -279 -474 -17 -34 -54 -101
-82 -151 -133 -233 -366 -724 -522 -1100 -42 -99 -91 -218 -111 -265 -20 -47
-43 -105 -50 -130 -7 -25 -45 -130 -83 -235 -64 -178 -174 -512 -219 -670 -66
-233 -156 -583 -185 -725 -19 -91 -48 -228 -65 -305 -81 -380 -161 -955 -208
-1495 -27 -303 -26 -1547 0 -1855 56 -648 137 -1174 286 -1856 41 -190 179
-694 257 -939 498 -1569 1349 -3103 2329 -4200 601 -673 1186 -1215 1860
-1722 941 -707 2007 -1290 3110 -1700 479 -178 1128 -372 1550 -464 66 -14
149 -33 185 -41 469 -105 1129 -198 1730 -245 229 -18 1451 -18 1685 0 337 26
713 69 1020 117 83 13 173 26 200 30 133 18 769 152 950 200 50 13 115 31 145
39 597 156 1275 394 1803 630 81 36 149 66 151 66 22 0 626 303 836 419 1051
583 1946 1256 2785 2096 702 702 1288 1445 1801 2285 343 561 648 1163 886
1745 165 404 390 1054 462 1335 13 52 42 160 64 240 79 289 200 852 237 1106
76 525 109 805 137 1149 18 222 18 1438 0 1665 -16 197 -56 581 -78 735 -62
445 -98 656 -159 940 -15 66 -35 162 -46 214 -29 140 -135 547 -201 766 -425
1426 -1106 2770 -1995 3940 -450 591 -889 1076 -1358 1498 -104 95 -192 174
-195 177 -17 18 -234 202 -337 286 -433 350 -839 638 -1313 931 -161 99 -397
238 -444 261 -17 9 -80 43 -141 77 -465 260 -1113 550 -1730 773 -343 125
-979 314 -1295 387 -314 72 -740 156 -880 175 -41 5 -151 21 -245 34 -312 46
-609 78 -925 101 -305 22 -1371 19 -1685 -5z m4571 -891 c8 -7 54 -11 115 -11
77 0 123 -6 188 -24 47 -13 105 -24 128 -24 24 0 48 -6 57 -16 9 -8 44 -19 78
-24 33 -5 64 -13 67 -18 11 -15 67 -33 112 -34 25 -1 56 -10 72 -20 15 -11 27
-16 27 -13 0 4 10 1 23 -7 12 -9 54 -23 92 -33 39 -9 73 -22 76 -27 4 -6 19
-10 35 -10 15 0 34 -6 41 -14 12 -12 108 -44 132 -44 6 0 28 -9 50 -21 22 -11
46 -22 53 -23 28 -5 66 -19 125 -47 34 -16 65 -29 68 -29 10 0 398 -192 514
-254 114 -61 141 -72 141 -58 0 6 -12 13 -26 16 -15 4 -41 18 -59 32 -17 13
-35 24 -40 24 -4 0 -58 29 -120 65 -63 36 -117 65 -121 65 -4 0 -22 11 -40 25
-18 14 -36 25 -40 25 -11 0 -334 164 -330 168 2 2 23 -6 47 -16 24 -11 71 -30
104 -43 33 -12 73 -32 90 -43 16 -12 36 -20 42 -18 7 2 13 -1 13 -5 0 -5 15
-14 33 -21 17 -7 69 -31 115 -53 45 -22 88 -37 94 -33 7 4 8 3 4 -4 -7 -11 99
-68 118 -63 5 1 19 -8 32 -20 13 -12 24 -19 24 -14 0 5 6 1 13 -8 6 -10 24
-20 39 -22 33 -6 119 -49 175 -87 23 -15 46 -28 51 -28 6 0 12 -3 14 -7 2 -5
19 -16 38 -25 19 -10 76 -42 125 -73 50 -30 99 -59 110 -64 11 -5 47 -27 80
-50 89 -61 195 -131 200 -131 2 0 32 -19 66 -42 34 -24 94 -63 133 -88 40 -25
109 -73 155 -108 46 -35 93 -67 105 -72 11 -5 44 -30 71 -55 28 -26 69 -58 93
-72 23 -14 42 -28 42 -31 0 -4 21 -20 48 -37 45 -28 117 -85 229 -181 29 -25
64 -51 78 -58 14 -8 58 -45 98 -82 40 -38 91 -81 112 -96 22 -14 60 -45 85
-69 25 -23 87 -82 138 -131 51 -48 99 -88 105 -88 7 0 67 -53 133 -117 67 -65
186 -181 266 -258 80 -78 148 -151 152 -163 8 -25 51 -72 66 -72 6 0 10 -7 10
-15 0 -8 7 -15 15 -15 8 0 15 -5 15 -10 0 -6 43 -52 95 -103 52 -51 95 -100
95 -108 0 -9 39 -56 86 -104 47 -49 91 -100 99 -114 7 -14 25 -39 39 -54 15
-16 44 -52 66 -80 21 -29 55 -70 75 -92 20 -22 43 -55 52 -73 8 -18 35 -54 59
-80 24 -26 44 -51 44 -55 0 -4 18 -31 41 -59 22 -28 50 -70 61 -92 11 -23 24
-43 27 -46 4 -3 15 -25 26 -49 11 -24 24 -49 30 -55 5 -6 23 -38 40 -71 16
-33 41 -76 55 -95 15 -21 18 -30 8 -21 -10 7 -36 40 -57 72 -39 59 -88 119
-150 187 l-34 37 21 -35 c12 -20 28 -48 36 -64 8 -16 18 -32 23 -35 4 -3 18
-26 30 -51 19 -37 20 -46 8 -48 -17 -4 -20 -28 -5 -37 43 -27 55 -195 14 -195
-17 0 -34 -31 -34 -62 0 -32 -52 -51 -139 -49 -36 0 -90 1 -118 2 -29 0 -53 5
-53 10 0 5 -14 9 -30 9 -34 0 -128 30 -195 61 -23 11 -53 21 -66 23 -26 3 -73
20 -101 36 -10 6 -35 10 -56 10 -21 0 -47 7 -58 15 -10 8 -35 15 -55 15 -20 0
-42 7 -49 15 -7 8 -19 15 -26 15 -12 0 -36 18 -95 73 -10 9 -27 17 -36 17 -10
0 -27 7 -37 15 -11 8 -28 15 -38 15 -10 0 -18 5 -18 10 0 6 -9 10 -19 10 -11
0 -23 5 -26 10 -3 6 -20 10 -36 10 -17 0 -32 6 -35 15 -4 8 -14 15 -24 15 -10
0 -23 7 -30 15 -7 8 -25 15 -41 15 -16 0 -29 5 -29 10 0 6 -6 10 -14 10 -8 0
-16 3 -18 8 -5 11 -91 52 -110 52 -10 0 -18 5 -18 11 0 5 -16 17 -36 25 -23
10 -113 92 -243 223 -276 278 -690 654 -769 699 -42 24 -25 -13 28 -59 53 -46
63 -65 29 -54 -16 5 -19 4 -14 -5 5 -9 4 -11 -3 -6 -7 4 -12 13 -12 21 0 8 -5
17 -12 21 -7 5 -8 2 -3 -7 6 -11 5 -12 -6 -1 -7 6 -21 12 -31 12 -10 0 -18 5
-18 10 0 6 -6 10 -14 10 -8 0 -25 9 -38 20 -61 52 -72 60 -88 60 -20 0 -43 24
-33 33 3 4 -8 10 -26 13 -17 4 -34 11 -37 15 -3 5 -16 9 -30 9 -14 0 -24 6
-24 14 0 8 -9 18 -20 21 -11 4 -17 11 -14 17 5 7 1 9 -9 5 -9 -3 -16 -3 -16 1
4 22 -3 32 -21 32 -11 0 -19 5 -17 11 1 6 -8 12 -19 14 -12 1 -30 9 -39 18 -9
10 -21 15 -26 11 -5 -3 -12 2 -15 10 -7 18 -64 49 -64 36 0 -5 -8 -6 -17 -3
-11 4 -12 8 -5 11 7 2 12 8 12 14 0 5 -8 7 -19 3 -12 -4 -30 4 -50 21 -17 14
-31 23 -31 20 0 -3 -15 10 -33 29 -18 18 -45 37 -60 40 -15 4 -27 11 -27 16 0
5 -5 9 -12 9 -13 0 -79 42 -117 74 -17 15 -25 17 -28 9 -8 -22 -23 -14 -23 12
0 16 -6 25 -15 25 -8 0 -15 5 -15 11 0 15 -31 38 -51 39 -9 0 -22 7 -29 15 -7
9 -19 14 -26 11 -8 -3 -11 0 -7 9 3 9 -3 18 -13 22 -11 3 -23 12 -27 20 -4 7
-15 13 -22 13 -8 0 -15 5 -15 10 0 6 -8 10 -19 10 -19 0 -81 53 -81 70 0 5 -6
7 -14 4 -9 -3 -21 5 -31 20 -10 14 -25 26 -34 26 -20 0 -73 44 -64 54 3 3 1 6
-6 6 -7 0 -17 14 -22 30 -6 17 -15 30 -20 30 -4 0 -6 -7 -3 -15 9 -22 -7 -18
-39 10 -17 15 -25 30 -21 38 4 6 4 9 0 5 -4 -3 -22 7 -39 23 -21 20 -37 28
-51 23 -17 -4 -18 -3 -6 5 13 9 12 11 -3 11 -11 0 -15 4 -11 12 5 8 2 9 -9 5
-13 -5 -17 -1 -17 18 0 18 -7 26 -25 31 -14 3 -25 10 -25 15 0 5 -7 9 -15 9
-8 0 -15 9 -15 21 0 11 -4 17 -10 14 -5 -3 -10 -1 -10 4 0 6 -7 11 -15 11 -8
0 -15 4 -15 9 0 5 -13 14 -30 21 -16 7 -30 16 -30 21 0 5 -7 9 -15 9 -9 0 -18
7 -21 15 -3 8 -14 17 -23 20 -10 3 -24 16 -31 29 -7 14 -21 27 -31 29 -13 4
-17 11 -13 22 4 9 10 13 13 8 3 -5 29 -17 56 -28 28 -10 62 -27 77 -37 15 -10
37 -21 49 -23 11 -2 27 -10 35 -16 8 -7 18 -9 22 -5 9 10 -29 41 -88 72 -25
14 -63 36 -85 49 -22 13 -47 27 -55 31 -8 4 -27 16 -42 26 -15 10 -91 52 -170
92 -79 41 -168 88 -198 105 -95 53 -414 209 -570 278 -68 30 -136 61 -173 79
-16 8 -33 14 -38 14 -6 0 -38 13 -72 29 -34 16 -79 35 -100 42 -22 8 -44 23
-49 33 -15 27 -76 84 -98 91 -9 3 -25 20 -35 39 -10 18 -37 45 -61 60 -24 15
-44 34 -44 42 0 8 -5 14 -11 14 -13 0 -39 25 -39 38 0 15 -38 44 -49 37 -6 -3
-18 12 -28 35 -10 22 -26 43 -35 46 -10 3 -18 12 -18 20 0 8 -4 14 -8 14 -5 0
-14 11 -20 25 -6 14 -18 25 -26 25 -9 0 -19 19 -27 50 -7 28 -16 50 -21 50 -4
0 -8 9 -8 20 0 10 -6 23 -14 27 -9 5 -15 32 -17 78 -2 39 -10 76 -16 83 -15
16 -17 42 -3 42 6 0 10 7 10 15 0 8 7 15 15 15 8 0 15 6 15 14 0 8 -7 16 -15
20 -8 3 -15 11 -15 18 1 14 34 58 45 58 3 0 16 11 29 25 14 15 34 25 50 25 14
0 36 6 47 13 17 10 23 10 26 0 7 -19 20 -16 26 6 4 15 15 21 48 23 87 7 281
-2 295 -13z m-10855 -3694 c19 -8 43 -21 54 -28 10 -6 58 -36 105 -64 47 -29
93 -59 103 -65 9 -7 37 -24 61 -38 24 -14 67 -41 97 -60 30 -19 66 -42 81 -50
63 -34 258 -157 285 -180 7 -6 15 -10 19 -10 3 0 57 -33 120 -72 63 -40 131
-82 153 -93 21 -11 53 -32 72 -46 19 -14 66 -44 104 -66 106 -61 229 -136 235
-143 3 -4 28 -19 55 -35 28 -16 82 -49 120 -74 39 -25 82 -53 96 -61 36 -21
78 -46 173 -106 44 -28 103 -64 130 -80 26 -16 56 -33 65 -39 9 -5 45 -28 81
-49 36 -22 79 -50 96 -63 17 -13 34 -23 38 -23 4 0 40 -21 79 -47 40 -26 88
-56 107 -66 19 -11 89 -54 155 -97 66 -43 138 -87 160 -99 22 -12 85 -51 140
-86 55 -36 107 -68 115 -72 8 -4 47 -27 85 -52 39 -25 85 -54 104 -64 19 -11
79 -48 133 -83 55 -35 103 -64 107 -64 4 0 21 -11 37 -25 16 -14 33 -25 37
-25 4 0 45 -24 90 -53 45 -30 89 -57 97 -61 8 -3 35 -19 60 -35 25 -17 70 -44
100 -62 30 -17 57 -35 60 -39 3 -3 32 -22 65 -40 33 -19 93 -56 132 -82 40
-26 76 -48 79 -48 4 0 21 -10 38 -23 17 -12 45 -29 61 -37 17 -8 32 -17 35
-20 9 -10 118 -80 125 -80 3 0 11 -5 18 -10 7 -6 55 -36 107 -67 52 -31 97
-60 98 -64 2 -5 8 -9 13 -9 5 0 28 -13 51 -30 22 -16 45 -30 50 -30 6 0 28
-13 51 -29 42 -29 190 -120 277 -169 25 -14 50 -31 55 -38 6 -7 37 -27 70 -44
33 -18 93 -54 133 -81 41 -27 76 -49 79 -49 4 0 21 -11 39 -25 18 -14 42 -29
52 -33 10 -4 45 -24 78 -45 83 -54 316 -197 321 -197 2 0 13 -8 23 -18 11 -10
41 -29 67 -42 27 -13 68 -38 93 -55 25 -18 69 -45 98 -60 28 -16 52 -32 52
-36 0 -4 10 -11 22 -15 12 -4 59 -30 103 -59 44 -28 104 -66 132 -83 l53 -32
3 168 c1 92 5 -33 7 -278 4 -443 5 -444 10 -175 3 149 7 -832 8 -2179 1 -1347
0 -2447 -2 -2445 -5 5 -284 524 -2714 5039 -378 704 -483 899 -729 1355 -68
126 -127 233 -132 238 -4 4 -554 8 -1222 10 l-1214 2 3 -1413 2 -1412 -810 2
c-804 3 -811 3 -816 -17 -2 -11 -3 -184 -2 -385 3 -341 4 -365 21 -364 9 1 17
-2 17 -7 0 -5 110 -8 253 -7 l252 2 -185 6 c-102 3 142 7 543 8 464 1 727 -2
727 -8 0 -5 -8 -6 -17 -3 -15 6 -16 4 -6 -8 14 -17 24 -219 11 -219 -4 0 -8
-211 -8 -469 0 -365 3 -471 13 -474 6 -3 -352 -5 -798 -4 l-810 2 739 2 740 3
-182 113 c-100 61 -205 124 -233 140 -29 15 -68 40 -88 56 -20 15 -56 39 -81
53 -74 41 -152 89 -195 118 -56 38 -285 178 -388 237 -27 16 -74 47 -105 70
-31 23 -61 43 -65 43 -9 0 -127 69 -137 80 -3 3 -16 11 -30 19 -14 8 -60 36
-103 63 -43 26 -82 48 -87 48 -4 0 -13 6 -19 14 -7 8 -67 47 -134 87 -67 39
-151 91 -187 114 -36 24 -137 87 -225 141 -88 53 -162 100 -165 103 -3 3 -23
15 -45 26 -22 11 -45 25 -52 31 -19 19 -181 114 -193 114 -5 0 -10 5 -10 10 0
6 -4 10 -10 10 -9 0 -80 46 -90 58 -3 4 -34 22 -70 41 -36 19 -93 54 -126 77
-34 23 -79 52 -100 63 -22 12 -66 38 -99 59 -33 21 -120 76 -194 121 -74 46
-145 93 -158 106 -25 22 -25 23 -8 59 9 19 18 64 20 98 1 35 8 77 14 93 42
113 64 188 72 242 4 34 15 76 24 92 8 17 15 37 15 46 0 10 6 29 13 43 23 45
44 95 63 146 17 47 17 49 -1 62 -18 13 -18 15 -1 56 10 24 24 55 32 70 8 14
12 33 8 41 -3 8 2 21 10 30 11 10 12 17 4 19 -11 4 15 91 34 113 4 5 8 15 8
23 0 12 25 71 65 157 24 50 38 90 36 99 -1 5 5 16 13 25 9 10 17 31 19 47 2
16 14 49 27 74 44 82 102 205 105 220 2 8 21 55 44 103 23 48 41 90 41 94 0 3
14 28 30 55 17 26 30 57 30 68 0 11 6 20 14 20 8 0 14 8 13 18 0 9 8 30 18 45
10 16 20 40 21 54 2 14 9 33 17 42 25 30 77 121 77 136 0 8 5 15 10 15 6 0 10
7 10 17 0 9 12 32 28 52 29 38 41 57 67 108 9 18 23 37 31 44 8 6 14 19 14 29
0 10 7 21 16 24 8 3 12 10 9 16 -3 5 14 37 39 69 25 33 46 64 46 71 0 6 7 13
15 16 8 4 15 12 15 19 0 7 6 18 14 25 8 6 12 18 9 26 -3 8 -1 14 4 14 8 0 73
84 73 95 0 3 7 13 16 23 63 71 74 86 74 97 0 7 23 36 50 63 28 27 50 53 50 56
0 7 12 23 41 55 8 9 14 22 12 27 -2 5 10 24 27 42 16 18 30 37 30 43 0 5 4 9
8 9 5 0 22 19 39 43 17 23 41 53 54 67 13 14 49 57 79 95 30 39 58 72 63 73 4
2 5 8 1 13 -3 5 1 9 9 9 8 0 18 11 21 25 4 14 13 25 21 25 8 0 22 12 32 26 10
14 32 42 49 62 17 21 33 42 35 48 5 14 87 104 95 104 8 0 53 51 75 86 11 18
28 36 38 39 21 6 111 94 111 108 0 19 26 35 43 26 13 -8 52 26 201 173 102
101 195 192 208 204 13 11 38 37 55 56 21 23 39 35 50 32 12 -3 33 12 63 45
25 28 46 50 46 51 1 0 17 -7 35 -15z m9648 -5912 c1 -45 5 -63 14 -63 8 0 68
-35 135 -77 237 -151 296 -188 306 -192 6 -2 30 -17 53 -32 23 -16 46 -29 52
-29 5 0 31 -17 58 -37 26 -20 66 -47 88 -59 51 -27 228 -136 235 -143 7 -8
110 -71 116 -71 2 0 35 -20 72 -44 63 -41 109 -69 206 -125 22 -13 61 -38 86
-56 25 -18 61 -40 80 -50 19 -10 37 -21 40 -24 3 -4 25 -19 50 -32 69 -39 153
-93 169 -107 7 -7 34 -23 60 -35 25 -11 52 -27 59 -34 7 -7 34 -25 60 -40 26
-14 82 -48 125 -75 l78 -48 42 21 c126 64 239 140 317 213 l85 80 -70 -73
c-233 -242 -640 -391 -1248 -456 -251 -26 -463 -35 -879 -35 l-408 0 2 1763
c2 1603 3 1679 9 842 3 -506 7 -948 8 -982z m-7025 595 c-5 -7 -3 -8 6 -3 10
6 12 4 7 -9 -5 -11 -3 -15 5 -10 8 5 9 2 5 -10 -4 -10 -3 -15 3 -11 12 8 43
-52 34 -68 -4 -7 -3 -9 1 -4 11 10 88 -130 79 -145 -5 -7 -3 -8 6 -3 10 6 12
4 7 -9 -4 -10 -3 -15 3 -11 12 8 53 -72 44 -87 -4 -6 -3 -8 3 -5 13 8 26 -20
16 -36 -3 -7 -2 -9 2 -5 13 12 55 -64 49 -87 -4 -14 -3 -16 4 -7 7 11 10 10
16 -3 3 -9 3 -22 -1 -27 -4 -7 -1 -8 7 -3 10 6 12 4 7 -9 -4 -10 -3 -15 3 -11
5 3 21 -17 35 -46 15 -28 22 -48 16 -44 -7 3 -8 0 -5 -9 3 -9 10 -13 15 -10 9
5 13 -9 10 -35 -2 -7 2 -10 8 -7 13 8 54 -71 45 -86 -5 -7 -3 -8 6 -3 10 6 12
4 7 -9 -4 -10 -3 -15 3 -11 5 3 21 -17 35 -46 15 -28 21 -48 15 -44 -6 4 -4
-7 4 -24 9 -17 19 -31 22 -31 2 0 0 9 -6 20 -6 11 -8 20 -6 20 11 0 36 -61 30
-72 -4 -6 -3 -8 3 -5 13 8 36 -41 27 -55 -4 -6 -3 -8 3 -5 13 8 66 -89 57
-105 -4 -7 -3 -8 4 -4 14 8 76 -110 66 -126 -4 -6 -3 -8 2 -5 13 8 67 -90 58
-105 -5 -7 -3 -8 6 -3 10 6 12 4 7 -9 -4 -10 -3 -15 3 -11 5 3 21 -17 35 -46
15 -28 21 -48 15 -44 -6 4 -4 -7 4 -24 9 -17 19 -31 22 -31 3 0 2 6 -1 13 -4
6 1 3 9 -7 19 -23 21 -40 4 -30 -7 4 -8 3 -4 -5 4 -6 11 -9 15 -6 11 6 33 -44
25 -57 -5 -7 -2 -8 6 -3 10 6 12 4 7 -9 -4 -10 -3 -15 3 -11 5 3 23 -22 40
-56 17 -33 25 -58 18 -54 -7 4 -3 -2 8 -12 28 -24 67 -101 58 -115 -5 -7 -3
-8 6 -3 10 6 12 4 7 -8 -3 -9 -2 -16 3 -14 6 1 31 -35 56 -80 25 -46 43 -83
40 -83 -2 0 -21 29 -41 65 -20 36 -38 65 -41 65 -2 0 13 -33 36 -72 22 -40 44
-72 50 -71 5 2 6 -5 3 -14 -5 -12 -3 -14 7 -8 8 5 11 4 7 -3 -9 -13 2 -44 13
-37 11 7 22 -24 13 -37 -3 -6 -1 -8 5 -4 12 7 97 -140 95 -166 -1 -10 2 -16 7
-13 6 4 7 -2 3 -11 -4 -12 -3 -15 5 -10 8 5 10 1 5 -10 -4 -12 -3 -15 5 -10 8
5 10 2 6 -8 -4 -10 1 -18 10 -22 21 -8 49 -61 40 -76 -4 -7 -3 -8 4 -4 7 4 21
-14 37 -46 14 -29 20 -45 13 -35 -37 54 -33 42 17 -53 30 -58 60 -104 66 -102
6 1 8 -2 4 -8 -8 -13 104 -222 116 -215 5 4 6 -2 2 -11 -4 -12 -3 -15 5 -10 8
5 10 1 5 -10 -5 -13 -3 -15 7 -9 8 5 11 4 6 -3 -9 -14 62 -155 74 -147 5 3 12
0 16 -6 4 -8 3 -9 -4 -5 -7 4 -12 4 -12 -1 2 -22 170 -318 180 -315 6 1 9 -2
5 -8 -6 -10 39 -100 188 -375 185 -343 397 -740 397 -744 0 -2 -10 5 -22 16
-13 12 -45 33 -73 47 -27 14 -92 53 -144 86 -51 33 -97 60 -102 60 -5 0 -9 4
-9 9 0 4 -26 23 -57 40 -32 17 -105 61 -162 96 -57 36 -105 65 -107 65 -5 0
-117 73 -124 81 -3 3 -25 16 -50 30 -61 34 -83 47 -155 94 -65 42 -110 69
-154 95 -14 8 -132 81 -261 161 -129 80 -249 155 -266 165 -18 10 -56 35 -86
55 -30 20 -70 44 -90 53 -21 10 -42 24 -49 32 -6 8 -18 14 -25 14 -8 0 -14 5
-14 10 0 6 -4 10 -9 10 -5 0 -114 66 -242 146 -129 81 -243 150 -255 154 -11
5 -35 20 -52 35 -18 15 -35 25 -38 22 -3 -2 -8 -857 -13 -1898 -8 -1855 -8
-1821 -9 1616 l-2 3510 36 -63 c19 -34 32 -67 28 -74z m11822 -1777 l-25 -61
727 -3 727 -2 -734 -3 c-695 -2 -733 -1 -726 16 4 9 16 41 27 70 12 29 23 51
25 48 2 -2 -7 -31 -21 -65z m-876 -1211 c-52 -48 -61 -60 -43 -60 12 0 41 -15
65 -33 24 -18 70 -48 102 -66 33 -18 96 -56 140 -85 45 -29 106 -68 136 -86
30 -18 85 -53 122 -77 37 -24 70 -43 73 -43 4 0 26 -13 50 -30 24 -16 46 -30
50 -30 7 0 85 -50 110 -71 11 -9 46 -31 78 -49 32 -17 97 -56 143 -86 46 -30
86 -54 90 -54 3 0 20 -11 37 -24 18 -13 48 -32 67 -42 19 -11 49 -29 65 -40
17 -12 89 -56 160 -99 72 -44 132 -82 135 -85 3 -4 39 -26 82 -49 42 -23 82
-48 88 -56 7 -8 16 -15 21 -15 5 0 35 -17 67 -37 203 -130 421 -263 430 -263
6 0 12 -3 14 -7 4 -11 86 -63 98 -63 5 0 10 -3 10 -8 0 -4 17 -16 38 -27 20
-10 75 -43 122 -73 299 -189 407 -255 429 -264 14 -5 28 -13 31 -17 7 -12 117
-81 128 -81 5 0 14 -6 21 -13 6 -8 34 -26 63 -40 29 -15 67 -38 83 -52 17 -13
40 -32 53 -42 l23 -18 -26 -64 c-16 -38 -23 -67 -17 -73 8 -8 3 -32 -28 -143
-5 -16 -27 -79 -50 -140 -23 -60 -48 -128 -56 -150 -8 -22 -19 -48 -24 -57 -6
-10 -10 -24 -10 -31 0 -8 -9 -40 -19 -73 -17 -51 -18 -60 -5 -67 16 -9 13 -28
-11 -82 -36 -82 -45 -107 -45 -121 0 -9 -6 -28 -14 -42 -52 -102 -67 -135 -62
-139 2 -3 -6 -26 -19 -51 -73 -150 -95 -200 -95 -218 0 -10 -7 -28 -15 -38 -8
-11 -15 -28 -15 -37 0 -10 -5 -19 -11 -21 -5 -2 -11 -10 -12 -18 -2 -8 -16
-40 -32 -70 -15 -30 -35 -70 -44 -87 -8 -18 -19 -33 -23 -33 -4 0 -8 -5 -8
-10 0 -6 -12 -29 -26 -51 -14 -23 -27 -49 -29 -59 -2 -10 -14 -35 -27 -57 -41
-66 -47 -77 -69 -123 -12 -25 -21 -50 -20 -57 1 -6 -3 -14 -9 -18 -5 -3 -10
-14 -10 -25 0 -10 -7 -21 -16 -24 -8 -3 -13 -10 -10 -15 4 -5 0 -15 -7 -23 -7
-7 -16 -20 -20 -28 -8 -18 -30 -53 -37 -60 -16 -16 -79 -120 -73 -120 5 0 4
-4 -2 -8 -5 -4 -19 -25 -30 -47 -11 -22 -32 -52 -47 -67 -16 -14 -28 -31 -28
-36 0 -6 -3 -12 -7 -14 -9 -4 -53 -65 -53 -73 0 -3 -19 -32 -42 -63 -24 -31
-54 -73 -67 -92 -13 -19 -27 -37 -31 -40 -3 -3 -17 -27 -31 -54 -13 -27 -37
-63 -54 -80 -32 -33 -61 -74 -64 -91 -1 -5 -10 -14 -20 -20 -10 -5 -32 -26
-48 -45 -17 -19 -47 -53 -66 -75 -19 -22 -36 -44 -37 -50 -6 -21 -25 -45 -37
-45 -7 0 -13 -7 -13 -15 0 -8 -4 -15 -8 -15 -4 0 -30 -31 -57 -70 -28 -38 -53
-70 -57 -70 -5 0 -8 -5 -8 -10 0 -16 -81 -120 -102 -131 -10 -5 -18 -16 -18
-24 0 -8 -11 -26 -25 -41 -14 -15 -25 -23 -25 -19 0 11 -98 -90 -135 -140 -16
-22 -51 -59 -77 -83 -26 -24 -64 -66 -85 -93 -21 -27 -48 -52 -60 -55 -13 -4
-23 -10 -23 -16 0 -5 -4 -7 -9 -4 -4 3 -34 -24 -65 -59 -50 -57 -60 -64 -85
-59 -26 5 -41 -7 -165 -130 -81 -81 -141 -134 -148 -130 -6 4 -9 3 -5 -2 5 -9
-55 -84 -67 -84 -3 0 -14 -8 -24 -17 -11 -10 -38 -34 -62 -53 -24 -19 -52 -43
-61 -54 -10 -10 -22 -15 -27 -12 -11 7 -95 -52 -125 -87 -13 -14 -21 -17 -26
-9 -3 6 -24 19 -46 28 -21 8 -53 27 -70 40 -18 13 -35 24 -38 24 -4 0 -50 29
-104 64 -54 35 -114 72 -133 82 -31 17 -109 67 -221 140 -19 13 -39 24 -43 24
-5 0 -45 24 -90 54 -44 29 -117 75 -161 101 -44 26 -99 61 -122 76 -23 16 -46
29 -52 29 -6 0 -11 4 -11 8 0 5 -27 22 -59 39 -33 17 -74 42 -93 56 -18 13
-52 35 -75 48 -67 38 -207 123 -218 132 -18 15 -117 77 -122 77 -3 0 -36 20
-72 43 -97 64 -218 137 -228 137 -4 0 -24 14 -43 30 -19 17 -53 39 -75 51 -49
24 -197 115 -286 175 -36 24 -69 44 -73 44 -5 0 -29 15 -55 32 -56 40 -76 53
-118 73 -17 9 -39 25 -49 36 -9 10 -23 19 -31 19 -15 0 -49 20 -103 61 -19 15
-61 40 -92 57 -32 17 -90 53 -130 80 -40 27 -84 55 -99 63 -44 25 -90 53 -158
97 -36 24 -79 50 -97 58 -17 8 -41 24 -52 34 -12 11 -26 20 -31 20 -6 0 -45
24 -88 53 -43 29 -93 60 -111 68 -17 7 -32 17 -32 21 0 5 -6 8 -13 8 -8 0 -25
9 -38 21 -13 11 -53 37 -89 56 -36 20 -74 44 -85 53 -11 9 -49 33 -85 53 -62
34 -142 96 -110 85 13 -5 15 198 12 1793 l-2 1799 837 0 c681 0 868 2 998 15
185 18 331 39 463 66 52 10 106 16 120 13 22 -4 24 -3 12 6 -12 9 -7 10 20 5
23 -4 30 -3 22 3 -17 12 34 23 69 16 19 -5 21 -4 9 5 -12 9 -10 11 10 11 20 1
203 60 385 124 14 5 12 2 -5 -9 -28 -18 -16 -16 47 10 24 9 41 21 38 25 -7 12
32 23 46 14 7 -4 9 -3 6 3 -3 5 34 28 83 51 97 43 120 48 43 8 -27 -14 -44
-25 -39 -26 27 -1 389 207 381 220 -3 5 0 12 6 16 8 5 9 3 4 -6 -5 -8 -3 -11
6 -8 8 3 14 10 14 16 0 5 4 14 9 19 5 5 6 3 2 -4 -13 -23 10 -14 70 28 116 82
214 160 211 170 -2 9 112 118 123 118 3 0 -24 -27 -60 -59z"/>
</g>
</svg>
